<svg id="Group_962" data-name="Group 962" xmlns="http://www.w3.org/2000/svg" width="200.055" height="256.609" viewBox="0 0 200.055 256.609">
  <path id="Path_1" data-name="Path 1" d="M254.962,367.043c-14.856,6.757-35.16,17.874-51.5,13.175a3.047,3.047,0,0,1,1.667-5.862c8.924,2.567,19.882-.732,30.438-5.174-12.587-7.017-28.667-8.823-40.852.026-11.9,8.64-13.936,23.114-9.725,36.48,3.987,12.654,8.655,21.612,12.929,29.807,9.83,18.861,14.2,31.416,13.5,52.832-.11,3.374-2.179,22.261,4.557,20.75,4.505-1.01,8.759-9.766,10.949-13.554,6.137-10.611,12.9-22.307,23.019-24.7,8.982-2.13,17.477,2.844,24.636,7.037,3.892,2.28,7.318,4.285,9.41,4.285,4.193,0,7.127-6.7,9.425-16.991,2.564-11.482,4.034-27.238,5.457-43.537,1.565-17.914,1.67-37.276-4.4-49.206C288.852,361.357,277.226,356.913,254.962,367.043Zm-29.4,26.309c4.945-5.6,15.2-7.535,21.317-2.442a3.037,3.037,0,0,1-3.883,4.67c-3.536-2.946-10.11-1.317-12.859,1.8a3.047,3.047,0,0,1-4.575-4.025Zm63.784,24.408c-16.439,40.595-37.921,51.478-65.789,16.048-.868-1.1-1.589-2.02-2.13-2.633a3.046,3.046,0,0,1,.275-4.3,3.014,3.014,0,0,1,1.8-.752c13.912-1.586,56.234-16.141,64.3-12.335A3.036,3.036,0,0,1,289.341,417.76Zm.139-32.006a3.035,3.035,0,0,1-4.277.394c-3.536-2.946-10.107-1.319-12.859,1.8a3.049,3.049,0,1,1-4.578-4.028c4.942-5.6,15.2-7.535,21.317-2.442A3.039,3.039,0,0,1,289.48,385.753Z" transform="translate(-130.036 -256.802)" fill="#20cbaf"/>
  <path id="Path_2" data-name="Path 2" d="M39.179,27.65c-18.2,0-26.309,23.522-26.309,38.511s8.111,38.511,26.309,38.511S65.49,81.15,65.49,66.161,57.374,27.65,39.179,27.65ZM53.294,93.882a40.522,40.522,0,0,1-5.046,5.237,3.041,3.041,0,0,1-3.979-4.6,32.578,32.578,0,0,0,4.259-4.424,3.044,3.044,0,0,1,4.766,3.788ZM56.48,48a3.041,3.041,0,0,1,3.588,2.373,73.562,73.562,0,0,1,1.589,21.416,42.867,42.867,0,0,1-4.364,15.886,3.047,3.047,0,1,1-5.431-2.763,36.843,36.843,0,0,0,3.744-13.646,67.755,67.755,0,0,0-1.5-19.677A3.041,3.041,0,0,1,56.48,48Z" transform="translate(-9.146 -19.649)" fill="#cee8ff"/>
  <path id="Path_3" data-name="Path 3" d="M423.043,607.454c-3.77.339-7.622,3.38-9.251,6.7-.912,1.875-2.839,2.977-4.76,1.536a4.1,4.1,0,0,0-4.688-.469c-2.222,1.239-3.336,4-3.614,6.409,11.893,6.146,21-1.716,27.593-11.482A5.114,5.114,0,0,0,423.043,607.454Z" transform="translate(-284.774 -431.658)" fill="#f2d2dd"/>
  <path id="Path_4" data-name="Path 4" d="M135.554,233.574a3.042,3.042,0,0,0-4.277.489,32.41,32.41,0,0,1-4.259,4.424,3.041,3.041,0,0,0,3.979,4.6,40.158,40.158,0,0,0,5.046-5.237A3.044,3.044,0,0,0,135.554,233.574Z" transform="translate(-89.516 -165.517)" fill="#142235"/>
  <path id="Path_5" data-name="Path 5" d="M156.357,132.256a3.047,3.047,0,0,0,4.1-1.334,42.867,42.867,0,0,0,4.364-15.886,73.656,73.656,0,0,0-1.589-21.416,3.04,3.04,0,1,0-5.958,1.215,67.86,67.86,0,0,1,1.5,19.677,36.786,36.786,0,0,1-3.744,13.646A3.043,3.043,0,0,0,156.357,132.256Z" transform="translate(-109.929 -64.8)" fill="#142235"/>
  <path id="Path_6" data-name="Path 6" d="M482.344,419.481a3.049,3.049,0,1,0,4.578,4.028c2.752-3.116,9.32-4.743,12.859-1.8a3.038,3.038,0,0,0,3.883-4.673C497.548,411.949,487.287,413.879,482.344,419.481Z" transform="translate(-342.233 -294.266)" fill="#142235"/>
  <path id="Path_7" data-name="Path 7" d="M341.039,456.1c2.749-3.116,9.323-4.746,12.859-1.8a3.038,3.038,0,0,0,3.883-4.673c-6.114-5.093-16.372-3.163-21.317,2.442a3.048,3.048,0,1,0,4.575,4.028Z" transform="translate(-238.565 -317.427)" fill="#142235"/>
  <path id="Path_8" data-name="Path 8" d="M195.542,125.87c-7.85,4.326-13.447,12.83-17.347,20.611.165-13.369-1.221-26.248-5.946-35.537-7.165-14.089-21.248-20.088-47.47-8.157-3.435,1.565-6.841,3.206-10.275,4.78-16.1-11.9-38.667-10.964-51.02-1.994C49.437,115.774,46.5,132.89,51.518,148.8a154.877,154.877,0,0,0,8.733,21.775c-7.269-6.742-16.644-14.234-26.87-18.27,2.448-19.853,5.712-43.613,2.619-63.344C55.8,85.99,64.82,62.233,64.82,44.611,64.82,25.9,54.3,0,32.411,0S0,25.9,0,44.611c0,17.9,9.422,42.319,29.862,44.478,3.163,18.733-.055,42.415-2.39,61.316a37.913,37.913,0,0,0-4.9-.874,3.044,3.044,0,0,0-.645,6.053,32.336,32.336,0,0,1,4.8.909,104.95,104.95,0,0,0-1.03,13.823,3.04,3.04,0,1,0,6.077-.214,91.455,91.455,0,0,1,.851-11.534c11.537,5.006,22.151,14.928,29.176,21.974,13.745,13.777,16.525,29.2,15.874,48.894-.153,4.7-.851,14.523,1.612,20.982H44.081a3.1,3.1,0,0,0-3.1,3.1h0a3.1,3.1,0,0,0,3.1,3.1H162.41a3.1,3.1,0,0,0,3.1-3.1h0a3.1,3.1,0,0,0-3.1-3.1H97.978c2.636-3.3,4.7-7.327,6.557-10.544,5.512-9.529,11.583-20.024,19.159-21.821,6.632-1.571,13.97,2.726,20.157,6.349,4.67,2.734,8.782,5.142,12.486,5.142,7.816,0,12.414-8.591,15.359-21.78,2.561-11.47,4.358-31.523,6.091-42.357,1.791-11.2,10.97-28.844,20.689-34.2a3.045,3.045,0,1,0-2.934-5.336ZM32.411,83.125C14.213,83.125,6.1,59.6,6.1,44.614S14.216,6.1,32.411,6.1,58.723,29.625,58.723,44.614,50.609,83.125,32.411,83.125Zm138.8,79.792c-1.424,16.3-2.894,32.056-5.457,43.537-2.3,10.287-5.232,16.991-9.424,16.991-2.092,0-5.518-2.005-9.41-4.285-7.159-4.193-15.654-9.167-24.636-7.037-10.116,2.4-16.878,14.092-23.019,24.7-2.19,3.785-6.444,12.541-10.949,13.554-.078.017-.156.029-.231.041H87.1c-5.261-.946-3.449-17.64-3.345-20.791.7-21.419-3.669-33.971-13.5-52.835-4.271-8.2-8.941-17.153-12.929-29.807-4.21-13.366-2.173-27.84,9.725-36.48,12.185-8.849,28.268-7.043,40.852-.026-10.556,4.442-21.514,7.74-30.438,5.174a3.047,3.047,0,0,0-1.667,5.862c16.337,4.7,36.642-6.418,51.5-13.175,22.263-10.128,33.89-5.686,39.512,5.368C172.885,125.641,172.778,145,171.215,162.917Z" transform="translate(0 0)" fill="#142235"/>
  <path id="Path_9" data-name="Path 9" d="M388.554,534.4c-8.068-3.8-50.392,10.753-64.3,12.335a3.047,3.047,0,0,0-2.075,5.052c.541.613,1.262,1.531,2.13,2.633,27.868,35.429,49.351,24.549,65.789-16.048A3.037,3.037,0,0,0,388.554,534.4Zm-41.81,32.99c.278-2.407,1.392-5.171,3.614-6.409a4.1,4.1,0,0,1,4.688.469c1.921,1.441,3.848.339,4.76-1.536,1.629-3.322,5.478-6.36,9.251-6.7a5.116,5.116,0,0,1,5.281,2.694C367.74,565.674,358.637,573.536,346.744,567.39Zm30.985-17.026a11.245,11.245,0,0,0-9.222-3.2,18.325,18.325,0,0,0-12.81,7.8,9.965,9.965,0,0,0-8.3.709,13.493,13.493,0,0,0-6.106,8.105,74.935,74.935,0,0,1-11.132-11.757c15.837-2.786,38.766-11.948,52.852-12.489A118.874,118.874,0,0,1,377.729,550.364Z" transform="translate(-228.41 -379.317)" fill="#142235"/>
  <path id="Path_10" data-name="Path 10" d="M345.01,60.01a21.91,21.91,0,1,0,21.913,21.911A21.91,21.91,0,0,0,345.01,60.01Z" transform="translate(-229.607 -42.645)" fill="#20cbaf" fill-rule="evenodd" opacity="0.5"/>
  <path id="Path_11" data-name="Path 11" d="M429.973,242.81a10.575,10.575,0,1,0,10.573,10.573A10.574,10.574,0,0,0,429.973,242.81Z" transform="translate(-298.042 -172.55)" fill="#20cbaf" fill-rule="evenodd" opacity="0.22"/>
  <path id="Path_12" data-name="Path 12" d="M536.848,127.64a19.778,19.778,0,1,0,19.778,19.778A19.777,19.777,0,0,0,536.848,127.64Z" transform="translate(-367.45 -90.706)" fill="#20cbaf" fill-rule="evenodd" opacity="0.3"/>
</svg>
